<svg width="1200" height="630" viewBox="0 0 1200 630" fill="none" xmlns="http://www.w3.org/2000/svg">
  <defs>
    <linearGradient id="bg" x1="74" y1="44" x2="1124" y2="586" gradientUnits="userSpaceOnUse">
      <stop stop-color="#FFF8F1"/>
      <stop offset="1" stop-color="#FFE8E1"/>
    </linearGradient>
    <linearGradient id="avatar-bg" x1="780" y1="148" x2="1038" y2="406" gradientUnits="userSpaceOnUse">
      <stop stop-color="#FFF5F5"/>
      <stop offset="1" stop-color="#FDE7EA"/>
    </linearGradient>
  </defs>

  <rect width="1200" height="630" rx="36" fill="url(#bg)"/>
  <rect x="42" y="42" width="1116" height="546" rx="30" fill="#FFFBF7" stroke="#FED7E2" stroke-width="2"/>

  <g transform="translate(110 72) scale(0.075)">
    <path
      d="M315.6,850.35c0-33.1-26.899-60-60-60H150c-16.5,0-30-13.5-30-30v-559.2c0-16.5,13.5-30,30-30h107.5c33.1,0,60-26.9,60-60c0-33.1-26.9-60-60-60H150c-82.7,0-150,67.3-150,150v559.2c0,82.7,67.3,150,150,150h105.5C288.7,910.35,315.6,883.45,315.6,850.35z"
      fill="#111111"
    />
    <path
      d="M706,910.35h105.5c82.7,0,150-67.3,150-150v-559.2c0-82.7-67.3-150-150-150H704c-33.101,0-60,26.9-60,60c0,33.1,26.899,60,60,60h107.5c16.5,0,30,13.5,30,30v559.2c0,16.5-13.5,30-30,30H706c-33.101,0-60,26.9-60,60S672.899,910.35,706,910.35z"
      fill="#111111"
    />
    <path
      d="M674.899,686.15c17.5-27.5,26.301-57.1,26.301-88.7c0-34.8-7.301-64.1-22-87.699c-14.7-23.7-34.9-42.301-60.9-56c-25.9-13.601-65.9-26.9-120-39.601c-54.1-12.8-88.2-25-102.2-36.8c-11-9.3-16.5-20.4-16.5-33.4c0-14.3,5.9-25.7,17.7-34.2c18.3-13.3,43.6-19.9,75.9-19.9c31.3,0,54.8,6.2,70.399,18.6c9.601,7.6,17.101,18.2,22.601,31.8c7,17.4,24.1,28.6,42.8,27.8l26.5-1.2c29.7-1.3,49.5-31.1,39.399-59.1c-9.1-25-23.899-46.5-44.6-64.5c-34.9-30.3-87-45.5-156.1-45.5c-42.301,0-78.5,6.4-108.4,19.2c-29.9,12.8-52.8,31.4-68.8,55.8c-15.9,24.4-23.9,50.7-23.9,78.7c0,43.6,16.9,80.5,50.7,110.8c24,21.5,65.9,39.699,125.5,54.5c46.3,11.5,76,19.5,89,24c19,6.8,32.4,14.699,40,23.899c7.6,9.101,11.5,20.2,11.5,33.2c0,20.3-9.1,38-27.2,53.2c-18.2,15.2-45.1,22.7-81,22.7c-33.8,0-60.7-8.5-80.6-25.5c-13.4-11.5-23.8-27.4-31.2-47.7c-6.8-18.9-25.6-30.7-45.6-28.8l-22.5,2.199c-27.9,2.7-46,30.4-37.7,57.101c11.4,36.5,30.1,66,56,88.3c37.3,32.2,90.8,48.3,160.399,48.3c47.801,0,87.801-6.7,119.801-20.1C632.6,734.15,657.399,713.65,674.899,686.15z"
      fill="#111111"
    />
  </g>

  <text x="110" y="274" font-family="Rubik, Arial, sans-serif" font-size="74" font-weight="700" fill="#2F110B">
    stefany sá
  </text>
  <text x="110" y="322" font-family="Rubik, Arial, sans-serif" font-size="25" font-weight="500" fill="#9F1239">
    staff software engineer @ iFood
  </text>
  <text x="110" y="380" font-family="Rubik, Arial, sans-serif" font-size="24" font-weight="500" fill="#475569">
    i build what i can&apos;t photograph and photograph
  </text>
  <text x="110" y="416" font-family="Rubik, Arial, sans-serif" font-size="24" font-weight="500" fill="#475569">
    what i can&apos;t build
  </text>
  <text x="110" y="506" font-family="Rubik, Arial, sans-serif" font-size="24" font-weight="500" fill="#475569">
    stefany-sa.com.br
  </text>

  <circle cx="905" cy="312" r="154" fill="#FFFFFF" fill-opacity="0.7"/>
  <circle cx="905" cy="312" r="144" fill="url(#avatar-bg)" stroke="#FBCFE8" stroke-width="2"/>
  <svg x="764" y="171" width="282" height="282" viewBox="0 36 1196 1196" fill="none" xmlns="http://www.w3.org/2000/svg">
    <mask id="avatar-mask0" maskUnits="userSpaceOnUse" x="0" y="36" width="1197" height="1197">
      <circle cx="598.033" cy="634.033" r="598.033" fill="#D9D9D9"/>
    </mask>
    <g mask="url(#avatar-mask0)">
      <path d="M1130.2 370.588C1368.24 829.02 949.804 1346.27 450.98 1220C227.059 1164.31 47.0588 970.196 9.80391 742.353C-32.549 515.686 69.8039 272.157 261.176 143.922C523.529 -36.4706 887.059 23.5294 1074.9 281.569C1076.08 282.745 1075.69 284.706 1074.12 285.882C1072.94 287.059 1070.98 286.667 1069.8 285.098C1043.92 251.765 1014.51 221.569 982.353 194.51C929.412 149.412 867.451 114.118 801.961 90.1961C468.627 -30.5882 102.745 170.196 29.8039 518.824C-52.549 909.412 279.608 1269.02 675.686 1215.29C981.176 1176.86 1208.24 894.902 1183.14 588.235C1177.65 514.118 1158.04 440.784 1125.49 373.333C1124.71 372.157 1125.49 370.588 1126.67 369.804C1127.84 369.02 1129.41 369.412 1130.2 370.588Z" fill="black"/>
      <path d="M982.056 1259.44L102.474 1266.03C102.474 1266.03 138.742 1118.77 181.237 992.378C196.99 945.486 203.951 885.773 241.317 857.565C283.446 825.693 342.793 813.97 381.992 800.049C402.873 792.723 418.626 793.089 433.279 789.059C433.279 790.891 433.646 792.356 433.646 794.188C433.646 794.188 473.21 911.783 576.152 953.546C660.044 987.615 709.866 964.902 717.559 927.169C722.321 902.991 707.301 863.426 699.608 850.604C695.212 846.941 692.282 841.446 690.816 835.951L687.885 823.861C694.846 822.396 701.44 820.564 708.034 818.366C710.232 817.634 714.628 824.228 716.46 823.495C763.718 835.951 858.966 867.09 902.927 915.446C957.145 973.328 982.056 1259.44 982.056 1259.44Z" fill="black"/>
      <mask id="avatar-mask1" maskUnits="userSpaceOnUse" x="102" y="789" width="881" height="478">
        <path d="M982.056 1259.44L102.474 1266.03C102.474 1266.03 138.742 1118.77 181.237 992.378C196.99 945.486 203.951 885.773 241.317 857.565C283.446 825.693 342.793 813.97 381.992 800.049C402.873 792.723 418.626 793.089 433.279 789.059C433.279 790.891 433.646 792.356 433.646 794.188C433.646 794.188 473.21 911.783 576.152 953.546C660.044 987.615 709.866 964.902 717.559 927.169C722.321 902.991 707.301 863.426 699.608 850.604C695.212 846.941 692.282 841.446 690.816 835.951L687.885 823.861C694.846 822.396 701.44 820.564 708.034 818.366C710.232 817.634 714.628 824.228 716.46 823.495C763.718 835.951 858.966 867.09 902.927 915.446C957.145 973.328 982.056 1259.44 982.056 1259.44Z" fill="black"/>
      </mask>
      <g mask="url(#avatar-mask1)">
        <path d="M482.406 854.523L433.189 903.741L482.406 952.958L531.623 903.741L482.406 854.523Z" fill="white"/>
        <path d="M675.417 854.409L626.2 903.627L675.417 952.844L724.635 903.627L675.417 854.409Z" fill="white"/>
        <path d="M289.652 854.377L240.435 903.594L289.652 952.812L338.869 903.594L289.652 854.377Z" fill="white"/>
        <path d="M865.593 854.522L816.375 903.739L865.593 952.956L914.81 903.739L865.593 854.522Z" fill="white"/>
        <path d="M393.257 1044.66L344.04 1093.87L393.257 1143.09L442.475 1093.87L393.257 1044.66Z" fill="white"/>
        <path d="M586.269 1044.54L537.052 1093.76L586.269 1142.98L635.487 1093.76L586.269 1044.54Z" fill="white"/>
        <path d="M776.443 1044.65L727.226 1093.87L776.443 1143.09L825.661 1093.87L776.443 1044.65Z" fill="white"/>
      </g>
      <path d="M989.018 1265.67C727.452 1268.23 360.013 1274.09 102.476 1275.19C97.3471 1275.19 92.951 1271.16 92.951 1266.03C111.634 1187.27 134.347 1109.24 158.526 1031.94C162.556 1019.12 166.585 1006.3 170.981 993.843C179.774 968.566 185.269 942.556 193.694 916.912C209.447 868.189 230.328 846.941 276.487 826.06C307.992 811.772 340.23 803.713 372.102 793.455L381.627 790.158C397.379 784.297 417.162 783.564 431.449 779.901C436.578 778.802 441.34 781.732 442.806 786.495C443.172 786.861 443.538 792.723 443.538 793.455L434.013 784.663C438.043 784.663 441.707 787.228 442.806 790.891C445.736 799.317 449.766 808.109 453.796 816.535C482.37 874.783 528.163 927.169 590.807 948.783C623.045 960.14 664.441 968.932 693.382 949.15C707.303 939.625 711.699 922.773 708.768 906.654C706.204 889.436 700.343 871.119 691.917 855.733L693.748 857.931C687.154 851.337 684.224 841.446 683.857 832.654L683.125 825.327C682.392 822.03 683.857 818.733 687.521 818.366C693.748 817.267 699.976 815.436 705.838 813.604C706.937 813.238 709.135 812.505 710.234 812.871C714.996 813.97 715.729 816.535 718.66 818.366C718.293 818.366 717.56 817.634 715.729 818.366H719.026C742.105 824.228 764.818 831.188 787.165 839.614C832.225 856.832 877.285 876.248 910.988 912.516C958.612 972.229 980.226 1160.89 989.751 1241.12C989.751 1241.86 990.85 1253.21 991.216 1254.31L991.583 1256.51V1257.61V1257.97C991.583 1260.54 990.484 1263.84 989.018 1265.67ZM975.097 1253.21C973.998 1254.31 972.899 1255.78 972.899 1257.24C972.899 1257.97 972.533 1258.71 972.899 1259.44V1259.07C972.899 1257.61 972.533 1253.21 972.167 1251.38C962.642 1161.63 951.285 1070.04 926.374 983.219C917.948 956.843 908.79 928.635 887.176 911.05C856.77 884.674 819.403 867.822 782.036 853.535C760.422 845.476 738.076 838.149 715.362 832.287L720.858 831.921C717.927 833.02 715.729 832.654 713.531 831.555C710.6 830.089 708.036 827.525 706.57 825.327C707.303 825.693 709.867 826.06 711.333 825.693H711.699H711.333L710.234 826.06C703.64 827.525 696.679 828.258 690.085 828.99L694.481 822.03C697.412 829.723 699.243 839.248 706.57 843.278C713.531 852.436 716.828 863.426 720.491 874.05C725.254 888.704 728.917 904.09 728.184 919.843C726.353 963.803 681.659 982.12 643.194 979.19C582.381 974.794 525.598 944.387 486.034 898.961C459.657 868.921 438.776 834.485 424.855 797.119L433.647 803.347C428.518 803.347 424.489 799.683 424.122 794.554L423.756 789.792L435.479 798.218C428.152 800.049 421.191 801.148 414.597 801.881C394.815 804.079 377.231 811.772 358.181 817.267C332.537 824.961 307.26 832.654 283.814 843.278C261.467 853.901 238.754 865.991 226.299 888.337C213.477 910.318 206.883 935.962 199.922 960.873C193.328 986.516 183.803 1012.16 175.744 1037.8C151.565 1114 130.318 1190.93 110.902 1268.6L101.743 1256.88C354.518 1255.04 719.026 1253.21 975.097 1253.21Z" fill="black"/>
      <path d="M708.4 935.731C700.706 973.464 650.884 996.177 566.992 962.107C479.803 926.939 442.07 843.047 432.546 818.136C484.2 721.422 448.298 654.382 448.298 654.382C567.359 644.124 671.399 783.333 671.399 783.333L687.518 852.205C688.984 858.067 691.914 863.196 696.31 866.859C704.003 880.414 713.162 911.552 708.4 935.731Z" fill="white"/>
      <path d="M840.65 425.786C847.244 456.558 850.541 481.469 832.59 563.53C815.006 645.223 857.868 662.075 756.392 792.858C714.995 846.344 614.618 831.324 533.291 776.007C505.815 757.323 494.092 709.333 473.577 675.263C457.458 648.52 450.132 676.362 428.884 653.283C399.943 621.778 365.141 558.401 382.359 446.301C410.201 264.596 554.172 243.348 660.777 263.497C768.115 284.012 823.066 344.825 840.65 425.786Z" fill="white"/>
      <path d="M447.201 685.887C438.775 671.6 427.785 659.144 417.527 645.956C407.636 632.402 399.577 617.382 392.983 601.995C349.388 495.024 366.24 344.458 473.211 281.448C517.538 255.804 571.024 249.576 620.846 253.606C727.451 261.299 825.264 310.389 848.343 423.221C860.799 473.044 843.947 524.331 834.422 573.054C830.026 597.233 833.689 622.144 833.323 647.055C832.957 672.333 825.996 697.61 816.471 721.056C810.61 737.175 800.352 751.462 789.729 764.65C772.144 785.898 754.56 807.512 732.213 823.997C727.085 827.661 717.926 829.492 711.698 830.225C694.48 832.789 677.629 833.522 660.411 832.423C593.004 829.492 520.835 796.888 493.726 731.68C492.627 729.115 496.29 727.284 497.756 729.482C532.924 785.165 597.4 812.641 661.51 816.304C681.292 817.403 701.441 817.037 720.857 813.007C730.382 808.245 738.807 799.819 746.867 792.126C766.649 772.343 786.798 751.096 801.085 726.917C818.303 694.313 827.828 658.778 824.897 621.778C824.165 605.292 823.798 588.074 827.095 571.589C830.026 555.104 833.689 539.351 835.887 522.5C838.086 506.381 839.185 489.895 839.185 473.776C837.353 426.518 821.967 377.795 791.927 341.161C725.619 258.735 568.826 237.121 480.538 293.537C424.854 327.973 398.844 392.449 390.418 455.093C377.596 530.193 381.26 604.193 440.973 658.778L458.557 677.095C465.518 685.154 453.062 694.679 447.201 685.887Z" fill="black"/>
      <path d="M490.428 569.391C490.428 569.391 479.071 514.44 425.585 521.034C379.427 526.895 363.308 637.53 468.081 668.302" fill="white"/>
      <path d="M463.32 620.312C454.894 615.55 449.033 607.49 448.666 597.599C449.033 590.272 450.132 581.847 448.3 574.52C447.201 567.559 439.874 565.728 434.379 566.094C428.518 567.193 424.854 574.52 423.755 580.381C423.755 580.748 423.389 581.847 423.389 582.213C423.022 584.045 420.092 584.045 419.359 582.213C414.597 567.926 425.221 552.173 440.607 554.005C462.221 555.47 465.152 578.183 461.122 595.401C458.924 602.728 461.854 609.322 465.884 615.55L466.617 616.649C468.449 618.847 465.518 621.778 463.32 620.312Z" fill="black"/>
      <path d="M756.391 530.559C761.886 556.569 772.143 580.747 784.965 603.46C796.322 631.302 767.015 657.679 741.005 656.58C738.074 656.58 737.707 652.55 740.272 651.817C756.757 646.689 771.777 635.698 774.341 618.847C775.441 613.718 773.975 609.322 771.411 604.926C759.322 582.213 751.995 556.203 753.826 530.559C753.826 528.727 756.391 528.727 756.391 530.559Z" fill="black"/>
      <path d="M488.597 569.757C480.171 548.143 461.854 527.628 437.31 527.995C435.112 527.628 431.448 528.361 429.25 528.361C423.022 528.727 417.894 530.925 413.131 535.321C389.686 558.767 393.715 600.164 412.765 626.174C419.359 635.332 427.785 643.392 437.31 649.986C446.835 656.58 457.458 661.709 468.815 666.105C471.379 666.837 470.28 670.867 467.716 670.501C443.171 665.372 419.725 653.283 403.606 633.134C378.695 603.094 373.567 552.906 403.24 523.599C409.834 517.737 418.993 513.341 428.151 513.341C431.082 513.341 435.478 512.608 438.409 513.341C453.795 514.074 468.449 521.767 477.973 533.856C486.399 544.114 491.162 556.569 492.627 569.025C492.627 571.223 489.33 571.955 488.597 569.757Z" fill="black"/>
      <path d="M887.024 750.539C844.529 642.102 850.024 608.032 860.281 516.814C880.796 337.307 815.954 293.713 781.884 276.495C636.814 202.86 470.496 238.762 407.851 339.872C368.653 402.882 367.188 453.437 345.207 525.972C307.474 650.161 216.622 705.112 244.83 832.232C283.662 957.521 532.041 1012.84 527.278 882.421C524.348 803.658 465.367 793.034 464.268 684.231C464.268 676.904 464.634 669.944 465.367 663.35C364.257 631.478 380.376 523.041 426.168 517.18C458.04 513.15 474.892 531.101 483.317 546.121C484.05 548.319 485.149 550.151 486.248 552.349C493.575 564.804 580.031 541.358 645.972 500.695C684.438 476.883 744.518 435.853 761.003 390.793C761.736 388.961 773.459 445.377 828.41 518.645C825.845 562.24 836.835 671.043 781.152 760.796C740.854 826.371 690.3 832.232 690.3 832.232C690.3 875.827 767.597 873.629 799.835 880.956C840.133 889.748 880.064 913.926 880.064 913.926C880.064 913.926 926.222 850.549 887.024 750.539Z" fill="black"/>
      <path d="M728.551 737.174C705.105 759.521 660.778 741.57 649.055 714.461C647.59 711.164 651.253 708.233 654.184 709.699C660.412 712.996 665.907 716.293 671.768 718.857C688.62 726.55 706.204 732.778 724.887 730.947C728.551 730.214 731.115 734.61 728.551 737.174Z" fill="black"/>
      <path d="M629.394 574.693C620.601 574.327 614.007 567 614.74 558.208L615.106 547.951C615.473 539.158 622.799 532.564 631.592 533.297C640.384 533.663 646.978 540.99 646.245 549.782L645.879 560.04C645.512 568.466 638.186 575.06 629.394 574.693Z" fill="black"/>
      <path d="M783.621 580.189C775.562 579.822 769.334 572.862 769.701 564.803L770.067 555.278C770.433 547.218 777.394 540.99 785.453 541.357C793.513 541.723 799.74 548.684 799.374 556.743L799.008 566.268C798.641 574.327 791.681 580.555 783.621 580.189Z" fill="black"/>
      <path d="M662.364 554.911C650.275 546.852 637.087 541.356 622.433 544.287C617.671 545.02 612.908 546.485 609.978 549.782C608.878 551.248 606.314 550.881 606.314 548.683C606.68 541.357 612.908 536.594 618.77 533.663C630.126 527.802 645.879 528.901 656.136 536.594C659.8 538.792 672.255 552.347 665.661 555.277C664.196 556.01 663.463 555.644 662.364 554.911Z" fill="black"/>
      <path d="M767.137 556.743C767.137 541.356 786.187 535.861 797.91 541.356C804.504 544.287 809.266 550.149 811.098 557.109C811.831 559.307 808.534 561.139 807.068 559.307C800.841 551.98 790.217 548.317 781.791 552.713C779.227 554.178 778.86 555.277 778.128 556.743C778.128 564.07 767.504 563.703 767.137 556.743Z" fill="black"/>
      <path d="M679.948 494.465C687.642 497.029 695.335 490.069 693.869 481.643C693.137 477.247 691.305 472.851 687.642 469.554C676.651 459.663 631.225 450.87 603.75 463.692C579.571 475.415 644.78 482.742 679.948 494.465Z" fill="black"/>
      <path d="M789.485 500.326C783.258 502.524 776.663 495.93 777.762 488.237C778.129 484.207 779.594 480.178 782.525 477.247C791.317 468.455 821.357 461.494 840.407 475.049C856.892 486.406 818.06 489.703 789.485 500.326Z" fill="black"/>
    </g>
  </svg>
</svg>
